# xmcd
#
# Track frame offsets:
#	151
#	21028
#	35926
#	58305
#	86218
#	105098
#	126770
#	138027
#	156416
#	175310
#	193951
#	212765
#
# Disc length: 3514 seconds
#
# Revision: 1
# Processed by: cddbd v1.5.2PL0 Copyright (c) Steve Scherf et al.
# Submitted via: audiograbber 1.83.01
#
DISCID=ad0db80c
DTITLE=The Delta Blues Band - It Is What It Is
DYEAR=2002
DGENRE=Blues
TTITLE0=Everything (more or less)
TTITLE1=Blow Wind Blow
TTITLE2=Bar Stool Woman
TTITLE3=Last Night
TTITLE4=Checkin' on my Baby
TTITLE5=Gimme Cash
TTITLE6=Drink Muddy Waters
TTITLE7=Honey Hush
TTITLE8=Melissa
TTITLE9=Weasel the Pimp
TTITLE10=It's Alright
TTITLE11=Rock Me
EXTD=TheDeltaBB1979@aol.com\nfreedb submitted by BigueNique@yahoo.ca\nhttp://ra
EXTD=dio.fiatlux.tk
EXTT0=
EXTT1=
EXTT2=
EXTT3=
EXTT4=
EXTT5=
EXTT6=
EXTT7=
EXTT8=
EXTT9=
EXTT10=
EXTT11=
PLAYORDER=
